<?xml version="1.0" encoding="utf-8"?>
<!-- Generator: Adobe Illustrator 21.1.0, SVG Export Plug-In . SVG Version: 6.00 Build 0)  -->
<svg version="1.1" id="HardWarBlack" xmlns="http://www.w3.org/2000/svg" xmlns:xlink="http://www.w3.org/1999/xlink" x="0px"
	 y="0px" viewBox="0 0 700 700" style="enable-background:new 0 0 700 700;" xml:space="preserve">
<path id="wire" d="M537,274c0-3.3,2.7-6,6-6h-67v12h67C539.7,280,537,277.3,537,274z M543,268c3.3,0,6,2.7,6,6v-6H543z M543,280h6
	v-6C549,277.3,546.3,280,543,280z M543,261c-5,0-9.4,2.8-11.5,7c-0.9,1.8-1.5,3.8-1.5,6s0.5,4.2,1.5,6c2.2,4.2,6.5,7,11.5,7
	c7.2,0,13-5.8,13-13S550.2,261,543,261z M543,280c-3.3,0-6-2.7-6-6s2.7-6,6-6s6,2.7,6,6S546.3,280,543,280z"/>
<path id="wire-2" d="M533,299c-5,0-9.4,2.8-11.5,7c-0.9,1.8-1.5,3.8-1.5,6s0.5,4.2,1.5,6c2.2,4.2,6.5,7,11.5,7c7.2,0,13-5.8,13-13
	S540.2,299,533,299z M533,318c-3.3,0-6-2.7-6-6s2.7-6,6-6s6,2.7,6,6S536.3,318,533,318z M533,318h6v-6C539,315.3,536.3,318,533,318z
	 M533,306c3.3,0,6,2.7,6,6v-6H533z M527,312c0-3.3,2.7-6,6-6h-57v12h57C529.7,318,527,315.3,527,312z"/>
<path id="wire-3" d="M523,337c-5,0-9.4,2.8-11.5,7c-0.9,1.8-1.5,3.8-1.5,6s0.5,4.2,1.5,6c2.2,4.2,6.5,7,11.5,7c7.2,0,13-5.8,13-13
	S530.2,337,523,337z M523,356c-3.3,0-6-2.7-6-6s2.7-6,6-6s6,2.7,6,6S526.3,356,523,356z M523,356h6v-6C529,353.3,526.3,356,523,356z
	 M523,344c3.3,0,6,2.7,6,6v-6H523z M517,350c0-3.3,2.7-6,6-6h-47v12h47C519.7,356,517,353.3,517,350z"/>
<path id="wire-4" d="M168.5,268c-2.2-4.2-6.5-7-11.5-7c-7.2,0-13,5.8-13,13s5.8,13,13,13c5,0,9.4-2.8,11.5-7c0.9-1.8,1.5-3.8,1.5-6
	S169.5,269.8,168.5,268z M151,274c0-3.3,2.7-6,6-6s6,2.7,6,6s-2.7,6-6,6S151,277.3,151,274z M157,268c3.3,0,6,2.7,6,6s-2.7,6-6,6h66
	v-12H157z M157,268h-6v6C151,270.7,153.7,268,157,268z M151,274v6h6C153.7,280,151,277.3,151,274z"/>
<path id="wire-5" d="M178.5,306c-2.2-4.2-6.5-7-11.5-7c-7.2,0-13,5.8-13,13s5.8,13,13,13c5,0,9.4-2.8,11.5-7c0.9-1.8,1.5-3.8,1.5-6
	S179.5,307.8,178.5,306z M161,312c0-3.3,2.7-6,6-6s6,2.7,6,6s-2.7,6-6,6S161,315.3,161,312z M167,306c3.3,0,6,2.7,6,6s-2.7,6-6,6h56
	v-12H167z M167,306h-6v6C161,308.7,163.7,306,167,306z M161,312v6h6C163.7,318,161,315.3,161,312z"/>
<path id="wire-6" d="M188.5,344c-2.2-4.2-6.5-7-11.5-7c-7.2,0-13,5.8-13,13s5.8,13,13,13c5,0,9.4-2.8,11.5-7c0.9-1.8,1.5-3.8,1.5-6
	S189.5,345.8,188.5,344z M171,350c0-3.3,2.7-6,6-6s6,2.7,6,6s-2.7,6-6,6S171,353.3,171,350z M177,344c3.3,0,6,2.7,6,6s-2.7,6-6,6h46
	v-12H177z M177,344h-6v6C171,346.7,173.7,344,177,344z M171,350v6h6C173.7,356,171,353.3,171,350z"/>
<g id="blue">
	<path id="secondary" d="M349.5,212v-52c0,0-35.6,22.8-70.1,32.5c-32.2,9.1-63.4,4.1-63.4,4.1v223.3L349.5,549v-14L226,415.8V246.7
		L349.5,212z M419.6,192.5c-34.4-9.7-70.1-32.5-70.1-32.5v52L473,246.7v169.1L349.5,535v14L483,419.8V196.5
		C483,196.5,451.8,201.5,419.6,192.5z"/>
</g>
<path id="logo" d="M278,370c-3.3,0-6,2.7-6,6s2.7,6,6,6s6-2.7,6-6S281.3,370,278,370z M278,370c-3.3,0-6,2.7-6,6s2.7,6,6,6
	s6-2.7,6-6S281.3,370,278,370z M278,370c-3.3,0-6,2.7-6,6s2.7,6,6,6s6-2.7,6-6S281.3,370,278,370z M278,370c-3.3,0-6,2.7-6,6
	s2.7,6,6,6s6-2.7,6-6S281.3,370,278,370z M278,318c-3.3,0-6,2.7-6,6s2.7,6,6,6s6-2.7,6-6S281.3,318,278,318z M278,318
	c-3.3,0-6,2.7-6,6s2.7,6,6,6s6-2.7,6-6S281.3,318,278,318z M278,318c-3.3,0-6,2.7-6,6s2.7,6,6,6s6-2.7,6-6S281.3,318,278,318z
	 M374,449c-3.3,0-6,2.7-6,6s2.7,6,6,6s6-2.7,6-6S377.3,449,374,449z M374,449c-3.3,0-6,2.7-6,6s2.7,6,6,6s6-2.7,6-6
	S377.3,449,374,449z M374,449c-3.3,0-6,2.7-6,6s2.7,6,6,6s6-2.7,6-6S377.3,449,374,449z M422,370c-3.3,0-6,2.7-6,6s2.7,6,6,6
	s6-2.7,6-6S425.3,370,422,370z M422,370c-3.3,0-6,2.7-6,6s2.7,6,6,6s6-2.7,6-6S425.3,370,422,370z M422,370c-3.3,0-6,2.7-6,6
	s2.7,6,6,6s6-2.7,6-6S425.3,370,422,370z M374,449c-3.3,0-6,2.7-6,6s2.7,6,6,6s6-2.7,6-6S377.3,449,374,449z M422,370
	c-3.3,0-6,2.7-6,6s2.7,6,6,6s6-2.7,6-6S425.3,370,422,370z M428,244.9v119.6c4.2,2.2,7,6.5,7,11.5c0,7.2-5.8,13-13,13s-13-5.8-13-13
	c0-5,2.8-9.4,7-11.5V241.5l-36-10.1v212c4.2,2.2,7,6.5,7,11.5c0,7.2-5.8,13-13,13s-13-5.8-13-13c0-5,2.8-9.4,7-11.5V228l-18-5v298
	l66-63.7V425l48-46.3V255L428,244.9z M278,318c-3.3,0-6,2.7-6,6s2.7,6,6,6s6-2.7,6-6S281.3,318,278,318z M278,370c-3.3,0-6,2.7-6,6
	s2.7,6,6,6s6-2.7,6-6S281.3,370,278,370z M278,370c-3.3,0-6,2.7-6,6s2.7,6,6,6s6-2.7,6-6S281.3,370,278,370z M278,370
	c-3.3,0-6,2.7-6,6s2.7,6,6,6s6-2.7,6-6S281.3,370,278,370z M278,370c-3.3,0-6,2.7-6,6s2.7,6,6,6s6-2.7,6-6S281.3,370,278,370z
	 M278,370c-3.3,0-6,2.7-6,6s2.7,6,6,6s6-2.7,6-6S281.3,370,278,370z M284,241.5v70.9c4.2,2.2,7,6.5,7,11.5c0,7.2-5.8,13-13,13
	s-13-5.8-13-13c0-5,2.8-9.4,7-11.5v-67.6L236,255v156l36,34.7v-58.2c-4.2-2.2-7-6.5-7-11.5c0-7.2,5.8-13,13-13s13,5.8,13,13
	c0,5-2.8,9.4-7,11.5v69.8l36,34.7V231.4L284,241.5z M278,370c-3.3,0-6,2.7-6,6s2.7,6,6,6s6-2.7,6-6S281.3,370,278,370z M278,370
	c-3.3,0-6,2.7-6,6s2.7,6,6,6s6-2.7,6-6S281.3,370,278,370z M332,228v275.6l18,17.4V223L332,228z M278,370c-3.3,0-6,2.7-6,6
	s2.7,6,6,6s6-2.7,6-6S281.3,370,278,370z M278,370c-3.3,0-6,2.7-6,6s2.7,6,6,6s6-2.7,6-6S281.3,370,278,370z M278,370
	c-3.3,0-6,2.7-6,6s2.7,6,6,6s6-2.7,6-6S281.3,370,278,370z M278,370c-3.3,0-6,2.7-6,6s2.7,6,6,6s6-2.7,6-6S281.3,370,278,370z"/>
</svg>
